<svg xmlns="http://www.w3.org/2000/svg" width="87" height="36" viewBox="0 0 87 36" fill="none" aria-label="ankerFooter" class="Footer_footer_icon__9NMnZ"><path d="M82.5433 17.7738C84.5441 16.2493 85.4237 14.6572 85.2787 12.6116C85.0757 9.63013 82.6593 7.63281 79.9046 7.63281H72.0176V24.8657H75.1589V17.7738H78.8608L83.2973 24.8657H86.9991L82.553 17.7738H82.5433ZM82.234 12.6213C82.234 13.9432 81.3062 14.7151 79.8853 14.7151H75.1492V10.6722H79.8853C81.6734 10.6722 82.234 11.9073 82.234 12.6213Z" fill="#40C7FB"></path><path d="M48.1152 18.4202L52.1651 24.856L55.896 24.8656L50.145 15.7378L48.1152 18.4202Z" fill="#40C7FB"></path><path d="M54.7552 7.63281H50.773L42.567 18.5264V7.63281H39.416V23.3412C39.416 23.9201 39.7543 24.6342 40.6532 24.8368C41.0108 24.9236 41.7261 24.8368 42.161 24.2675C42.2094 24.2 54.7649 7.63281 54.7649 7.63281H54.7552Z" fill="#40C7FB"></path><path d="M61.7461 17.7737H67.9417V14.7246H61.7461V17.7737Z" fill="#40C7FB"></path><path d="M69.5348 7.63281H57.2402V23.3316C57.2402 24.1807 57.9265 24.8657 58.777 24.8657H69.5444V21.8167H60.3912V10.6819H69.5444V7.63281H69.5348Z" fill="#40C7FB"></path><path d="M33.1137 7.63281V18.5264L24.9077 7.63281H20.8965V24.8561H24.0474V11.7625C27.7687 16.6738 33.4907 24.2289 33.5196 24.2675C33.9546 24.8271 34.6602 24.9236 35.0275 24.8368C35.9264 24.6342 36.2647 23.9201 36.2647 23.3412V7.63281H33.1137Z" fill="#40C7FB"></path><path d="M8.0707 8.55911L0 24.8657H3.51825L9.59785 12.6213L15.6678 24.8657H19.157L11.1443 8.617C10.8447 8.01877 10.2358 7.63281 9.5592 7.63281C8.92127 7.63281 8.34134 7.98982 8.06104 8.55911H8.0707Z" fill="#40C7FB"></path><path d="M12.4393 22.4242H10.3613C10.3613 22.4242 10.3226 22.4049 10.3323 22.3856L10.7382 17.9568C10.7382 17.9568 10.6995 17.9085 10.6802 17.9375L6.20508 23.7847C6.20508 23.7847 6.20508 23.8426 6.23407 23.8426H8.31215C8.31215 23.8426 8.35082 23.8619 8.34115 23.8812L7.9352 28.31C7.9352 28.31 7.97387 28.3583 7.9932 28.3293L12.4683 22.4821C12.4683 22.4821 12.4683 22.4242 12.4393 22.4242Z" fill="#40C7FB"></path></svg>